<svg width="894" height="304" xmlns="http://www.w3.org/2000/svg"><g fill="none" fill-rule="evenodd"><path d="M292 152c0 70.69-57.31 128-128 128-70.7 0-128-57.31-128-128 0-28.61 9.38-55.02 25.23-76.33L82.16 96.6a98.643 98.643 0 0 0-17 55.4c0 54.5 44.34 98.84 98.84 98.84s98.84-44.34 98.84-98.84c0-19.88-5.97-39.13-17-55.4l20.92-20.92C282.62 96.99 292 123.4 292 152" fill="#F60"/><path d="M234.84 152c0 39.06-31.78 70.84-70.84 70.84S93.16 191.06 93.16 152a70.7 70.7 0 0 1 9.3-35.09L164 178.44l61.53-61.53a70.71 70.71 0 0 1 9.31 35.09" fill="#4C4C4C"/><path d="M247.69 55.15L164 138.84l-63.77-63.77h-.01L80.3 55.15C102.74 35.74 132 24 164 24c31.99 0 61.24 11.73 83.69 31.15" fill="#F60"/><g><path d="M830.66 135.364c-5.32 5.357-11.774 8.027-19.36 8.027-6.704 0-12.63-2.059-17.818-6.198-6.668-5.277-9.998-12.464-9.998-21.557 0-8.141 2.65-14.87 7.952-20.15 5.283-5.298 11.812-7.93 19.593-7.93 7.683 0 14.215 2.71 19.574 8.12 5.38 5.413 8.07 12.032 8.07 19.864 0 7.853-2.667 14.448-8.013 19.824m11.174-50.499c-8.542-8.402-18.756-12.616-30.65-12.616-7.838 0-15.166 1.928-21.948 5.776-6.808 3.851-12.15 9.072-16.029 15.67-3.88 6.594-5.828 13.821-5.828 21.672 0 11.725 4.17 21.845 12.518 30.37 8.34 8.539 18.813 12.79 31.402 12.79 12.03 0 22.268-4.136 30.71-12.448 8.44-8.294 12.651-18.451 12.651-30.443 0-12.088-4.27-22.341-12.826-30.77M736.835 103.921c-2.026 1.382-2.983 2.062-8.345 2.062h-21.098V88.335h20.443c4.1 0 4.825.301 6.505.92 1.674.6 3.005 1.602 4.009 2.981 1.004 1.381 1.495 3.021 1.495 4.901 0 3.163-1.004 5.424-3.009 6.784zm2.537 16.248c5.588-1.962 9.782-4.842 12.564-8.642 2.785-3.822 4.157-8.547 4.157-14.227 0-5.384-1.247-10.067-3.767-14.008-2.517-3.941-5.852-6.763-9.984-8.464-4.135-1.701-11.073-2.56-20.834-2.56h-30.897v86.24h16.78v-36.517h14.646l19.855 36.517h18.354l-20.874-38.339zM615.387 72.25h57.185v16.066h-40.505v17.65h40.505v15.787h-40.505v20.608h40.505v16.131h-57.185zM526.782 72.25h16.067l37.838 56.746V72.249h16.78v86.24h-16.126l-37.778-56.565v56.565h-16.78V72.25zM489.591 135.364c-5.32 5.357-11.773 8.027-19.36 8.027-6.704 0-12.63-2.059-17.818-6.198-6.668-5.277-9.998-12.464-9.998-21.557 0-8.141 2.65-14.87 7.953-20.15 5.282-5.298 11.811-7.93 19.592-7.93 7.683 0 14.215 2.71 19.574 8.12 5.38 5.413 8.07 12.032 8.07 19.864 0 7.853-2.667 14.448-8.013 19.824m11.174-50.499c-8.542-8.402-18.756-12.616-30.65-12.616-7.837 0-15.166 1.928-21.948 5.776-6.808 3.851-12.15 9.072-16.029 15.67-3.88 6.594-5.828 13.821-5.828 21.672 0 11.725 4.17 21.845 12.518 30.37 8.34 8.539 18.813 12.79 31.402 12.79 12.03 0 22.268-4.136 30.71-12.448 8.44-8.294 12.651-18.451 12.651-30.443 0-12.088-4.27-22.341-12.826-30.77M331.513 72.247h16.432l20.381 60.152 20.692-60.152h16.186l14.861 86.243h-16.189l-9.475-54.467-18.766 54.467h-14.798l-18.518-54.467-9.66 54.467h-16.372z" fill="#4C4C4C" fill-rule="nonzero"/><path d="M320.067 213.632c0-3.512.631-6.7 1.895-9.566 1.263-2.865 2.973-5.315 5.13-7.348 2.156-2.034 4.713-3.605 7.671-4.714 2.958-1.11 6.1-1.664 9.428-1.664 3.327 0 6.47.555 9.427 1.664 2.958 1.11 5.515 2.68 7.672 4.714 2.157 2.033 3.867 4.483 5.13 7.348s1.895 6.054 1.895 9.566c0 3.513-.632 6.717-1.895 9.613s-2.973 5.376-5.13 7.44c-2.157 2.065-4.714 3.682-7.672 4.853-2.957 1.17-6.1 1.756-9.427 1.756-3.328 0-6.47-.585-9.428-1.756-2.958-1.17-5.515-2.788-7.672-4.853-2.156-2.064-3.866-4.544-5.13-7.44-1.263-2.896-1.894-6.1-1.894-9.613zm11.276 0c0 1.726.262 3.45.786 5.176s1.31 3.266 2.357 4.622c1.047 1.355 2.372 2.464 3.974 3.327 1.602.863 3.512 1.294 5.73 1.294 2.219 0 4.13-.431 5.731-1.294 1.602-.863 2.927-1.972 3.975-3.327 1.047-1.356 1.833-2.896 2.357-4.622.523-1.725.785-3.45.785-5.176 0-1.725-.262-3.435-.785-5.13a14.337 14.337 0 0 0-2.357-4.575c-1.048-1.355-2.373-2.45-3.975-3.28-1.602-.833-3.512-1.249-5.73-1.249-2.219 0-4.129.416-5.73 1.248-1.603.832-2.928 1.926-3.975 3.281a14.337 14.337 0 0 0-2.357 4.575 17.282 17.282 0 0 0-.786 5.13zm47.125-21.998h10.629v7.395h.185c1.232-2.588 2.957-4.683 5.176-6.286 2.218-1.602 4.806-2.403 7.764-2.403.431 0 .893.016 1.386.046.493.031.924.108 1.294.232v10.167a15.48 15.48 0 0 0-1.895-.37 13.054 13.054 0 0 0-1.525-.092c-2.526 0-4.56.462-6.1 1.386-1.54.924-2.742 2.033-3.605 3.327-.862 1.294-1.448 2.62-1.756 3.975-.308 1.355-.462 2.434-.462 3.235V236h-11.091v-44.366zm33.26 0h11.091V236h-11.091v-44.366zm-1.572-15.066c0-1.787.663-3.342 1.988-4.667 1.324-1.325 3.003-1.987 5.037-1.987 2.033 0 3.743.631 5.13 1.894 1.386 1.264 2.08 2.85 2.08 4.76 0 1.91-.694 3.497-2.08 4.76-1.387 1.264-3.097 1.895-5.13 1.895-2.034 0-3.713-.662-5.037-1.987-1.325-1.325-1.988-2.88-1.988-4.668zm70.694 15.066v40.392c0 4.005-.493 7.625-1.479 10.86-.986 3.235-2.51 5.977-4.575 8.226-2.064 2.25-4.668 3.99-7.81 5.222-3.143 1.233-6.87 1.849-11.184 1.849-1.787 0-3.682-.154-5.685-.462a39.243 39.243 0 0 1-5.915-1.387 35.582 35.582 0 0 1-5.592-2.31c-1.787-.925-3.389-1.972-4.806-3.143l6.377-8.596a22.895 22.895 0 0 0 7.302 4.668c2.711 1.078 5.453 1.617 8.226 1.617 2.65 0 4.884-.385 6.701-1.155 1.818-.77 3.266-1.833 4.345-3.189 1.078-1.355 1.848-2.958 2.31-4.806.462-1.849.694-3.882.694-6.1v-3.235h-.185c-1.602 2.156-3.651 3.805-6.147 4.945-2.495 1.14-5.284 1.71-8.365 1.71-3.327 0-6.346-.617-9.058-1.85-2.71-1.232-5.006-2.895-6.886-4.99-1.879-2.095-3.342-4.545-4.39-7.348-1.047-2.804-1.571-5.777-1.571-8.92 0-3.204.508-6.223 1.525-9.058 1.017-2.834 2.465-5.299 4.344-7.394 1.88-2.095 4.16-3.759 6.84-4.991 2.68-1.233 5.684-1.849 9.012-1.849 3.142 0 6.069.647 8.78 1.941 2.711 1.294 4.868 3.297 6.47 6.008h.185v-6.655h10.537zm-23.662 7.764c-2.033 0-3.836.37-5.407 1.11-1.571.739-2.896 1.74-3.974 3.003-1.079 1.264-1.91 2.758-2.496 4.483-.585 1.725-.878 3.574-.878 5.546 0 1.787.293 3.512.878 5.176a14.844 14.844 0 0 0 2.496 4.483 12.204 12.204 0 0 0 3.974 3.188c1.571.801 3.343 1.202 5.315 1.202 2.033 0 3.866-.385 5.5-1.155 1.632-.77 3.019-1.803 4.159-3.097 1.14-1.294 2.018-2.788 2.634-4.483a15.43 15.43 0 0 0 .924-5.314c0-1.91-.308-3.728-.924-5.453-.616-1.726-1.494-3.235-2.634-4.53a12.262 12.262 0 0 0-4.113-3.05c-1.603-.739-3.42-1.109-5.454-1.109zm36.588-7.764h11.091V236h-11.091v-44.366zm-1.572-15.066c0-1.787.663-3.342 1.988-4.667 1.324-1.325 3.004-1.987 5.037-1.987s3.743.631 5.13 1.894c1.386 1.264 2.08 2.85 2.08 4.76 0 1.91-.694 3.497-2.08 4.76-1.387 1.264-3.097 1.895-5.13 1.895s-3.713-.662-5.037-1.987c-1.325-1.325-1.988-2.88-1.988-4.668zm25.589 15.066h10.537v7.117h.185c.986-2.218 2.695-4.174 5.13-5.869 2.433-1.694 5.314-2.542 8.642-2.542 2.896 0 5.376.509 7.44 1.525 2.064 1.017 3.759 2.357 5.084 4.021 1.324 1.664 2.295 3.574 2.911 5.73.616 2.157.924 4.376.924 6.655V236h-11.091v-24.586c0-1.294-.092-2.65-.277-4.067-.185-1.417-.586-2.696-1.202-3.836a7.97 7.97 0 0 0-2.542-2.819c-1.078-.74-2.51-1.109-4.298-1.109-1.787 0-3.327.354-4.621 1.063-1.294.709-2.357 1.618-3.189 2.727-.832 1.109-1.463 2.387-1.895 3.835a15.304 15.304 0 0 0-.647 4.39V236h-11.091v-44.366zm80.768 38.728h-.277c-1.11 1.972-2.896 3.59-5.36 4.852-2.466 1.264-5.27 1.895-8.412 1.895-1.787 0-3.65-.23-5.592-.693a16.644 16.644 0 0 1-5.36-2.31c-1.634-1.08-2.99-2.496-4.067-4.253-1.079-1.756-1.618-3.928-1.618-6.516 0-3.327.94-5.977 2.82-7.949 1.878-1.971 4.297-3.481 7.255-4.529 2.957-1.047 6.239-1.74 9.843-2.08 3.605-.338 7.133-.508 10.583-.508v-1.109c0-2.773-1-4.821-3.003-6.146-2.003-1.325-4.39-1.987-7.164-1.987-2.341 0-4.59.493-6.747 1.478-2.157.986-3.944 2.188-5.36 3.605l-5.731-6.747c2.526-2.342 5.437-4.098 8.734-5.269 3.297-1.17 6.64-1.756 10.029-1.756 3.943 0 7.194.555 9.75 1.664 2.558 1.11 4.576 2.557 6.055 4.344a15.539 15.539 0 0 1 3.096 6.008c.586 2.218.878 4.437.878 6.655V236h-10.352v-5.638zm-.185-14.604h-2.495c-1.787 0-3.666.077-5.638.231-1.972.154-3.79.493-5.454 1.017-1.663.524-3.05 1.263-4.159 2.218-1.109.955-1.664 2.265-1.664 3.928 0 1.048.232 1.926.694 2.635a5.322 5.322 0 0 0 1.802 1.71c.74.43 1.571.739 2.496.924.924.185 1.848.277 2.772.277 3.82 0 6.717-1.017 8.689-3.05 1.972-2.033 2.957-4.806 2.957-8.319v-1.57zm23.093-49.634h11.092V236h-11.092v-69.876z" fill="#F60"/></g></g></svg>